<svg xmlns="http://www.w3.org/2000/svg" xmlns:xlink="http://www.w3.org/1999/xlink" version="1.1" id="layer" x="0px" y="0px" style="enable-background:new 0 300 652 100;" xml:space="preserve" viewBox="26.99 284.1 600.01 84.3">
<style type="text/css">
	.st0{fill:#FFFFFF;}
	.st1{fill:#7BA818;}
	.st2{fill:#BFCC00;}
</style>
<path class="st0" d="M118.3,345.6c0,7.6,4.9,13.8,13,13.8c7.8,0,13-5.9,13-13.8s-5.2-13.8-13-13.8  C123.2,331.8,118.3,338.1,118.3,345.6 M153.1,367.2h-9.4V362c-3,3.8-7.4,6.3-13.5,6.3c-12.1,0-21.6-9.5-21.6-22.7  c0-13.2,9.5-22.7,21.6-22.7c6.1,0,10.6,2.5,13.5,6.3v-5.2h9.4V367.2z M191.8,332.6h-16.5v18.8c0,5.8,3.1,8.1,6.8,8.1  c2.9,0,6.1-1.3,8.7-2.9l3.7,7.5c-3.5,2.3-7.8,4.3-13.2,4.3c-9.8,0-15.5-5.3-15.5-16.7v-18.9h-8.6v-8.5h8.6v-13h9.4v13h16.5V332.6z   M207.8,329.2c3.5-4.9,8.8-6.3,13.1-6.3c10.3,0,17.5,7.1,17.5,17.1v27.1H229v-24c0-7.2-3.7-11.3-10-11.3c-6.1,0-11.2,4-11.2,11.4  v23.9h-9.4v-64.8h9.4V329.2z M254.6,341.9H277c-1-6.7-4.9-10.6-10.9-10.6C259.3,331.3,255.6,335.6,254.6,341.9 M286.6,345.6  c0,1.2-0.1,2.4-0.2,3.5h-31.9c1.3,7.7,6.7,11,12.8,11c4.3,0,8.9-1.7,12.5-4.5l4.7,6.7c-5.3,4.5-11.2,6.1-17.7,6.1  c-12.9,0-22-9-22-22.7c0-13.5,8.8-22.7,21.5-22.7C278.3,323,286.5,332.1,286.6,345.6 M333.3,340.1v27.1h-9.4v-24  c0-7.2-3.7-11.3-10-11.3c-6.1,0-11.2,4-11.2,11.4v23.9h-9.4v-43.1h9.4v5.3c3.5-5.1,8.8-6.4,13.2-6.4  C326.1,323,333.3,330,333.3,340.1 M349.2,345.6c0,7.6,4.9,13.8,13,13.8c7.8,0,13-5.9,13-13.8s-5.2-13.8-13-13.8  C354.1,331.8,349.2,338.1,349.2,345.6 M384,367.2h-9.4V362c-3,3.8-7.4,6.3-13.5,6.3c-12.1,0-21.6-9.5-21.6-22.7  c0-13.2,9.5-22.7,21.6-22.7c6.1,0,10.6,2.5,13.5,6.3v-5.2h9.4V367.2z M398.8,332.2c3.3-5.6,9.3-8,15.1-8c10.6,0,17.8,6.6,17.8,17.1  v26h-5.1v-24.4c0-8.5-4.9-13.8-13.6-13.8c-8,0-14.2,5.7-14.2,14v24.1h-5.1v-64.8h5.1V332.2z M444.2,343.5h30.3  c-0.8-8.8-6.8-14.8-14.7-14.8C451.2,328.7,445.2,334.9,444.2,343.5 M479.7,345.8c0,0.8,0,1.5-0.1,2.1h-35.5  c0.8,9.9,7.7,15.5,16.4,15.5c5.9,0,10.6-2.3,14.3-6l2.7,3.5c-5.4,5.4-11.2,7-17.4,7c-12.4,0-21.3-8.9-21.3-21.8  c0-12.8,9-21.9,21-21.9C471.2,324.2,479.6,333.1,479.7,345.8 M489.5,346c0,9.5,6.9,17,16.5,17c9.6,0,16.5-7.3,16.5-17  c0-9.7-6.9-17.1-16.5-17.1C496.3,329,489.5,336.5,489.5,346 M527.3,367.2h-5.1V359c-3.4,5.3-9.1,8.8-16.8,8.8  c-11.9,0-21.1-9.2-21.1-21.8c0-12.6,9.3-21.9,21.1-21.9c7.7,0,13.4,3.5,16.8,8.8v-8.1h5.1V367.2z M543,367.2h-5.1v-64.8h5.1V367.2z   M582.3,329.5h-19.5v23.1c0,7.2,3.8,10.4,9.4,10.4c3.6,0,7-1.3,9.4-3.2l2.4,3.8c-3,2.5-7.2,4.2-12.3,4.2c-8.8,0-14.1-4.9-14.1-15.2  v-23.2h-9.7v-4.7h9.7V311h5.1v13.8h19.5V329.5z M594.1,332.2c3.3-5.6,9.3-8,15.1-8c10.6,0,17.8,6.6,17.8,17.1v26h-5.1v-24.4  c0-8.5-4.9-13.8-13.6-13.8c-8,0-14.2,5.7-14.2,14v24.1h-5.1v-64.8h5.1V332.2z"/>
<path class="st1" d="M71.6,308.8c0,2.9,2.4,5.3,5.3,5.3c2.9,0,5.3-2.4,5.3-5.3c0-2.9-2.4-5.3-5.3-5.3  C74,303.6,71.6,305.9,71.6,308.8 M102.4,311.5c0,0,0.9,22.2-10.1,37.5c-11.1,15.3-30,17.8-30,17.8s-0.9-22.2,10.1-37.5  C83.5,314,102.4,311.5,102.4,311.5"/>
<path class="st2" d="M58.2,324.1c0,0-8.3-10.1-8.5-21.1c-0.2-11,7.8-18.9,7.8-18.9s8.3,10.1,8.5,21.1  C66.2,316.2,58.2,324.1,58.2,324.1 M57.8,347v-0.2c0,0,0,0,0,0c0-4.3-0.8-17.7-7.8-27.4C41.5,307.7,27,305.8,27,305.8  s-0.7,17.1,7.8,28.8c6.1,8.3,15.1,11.7,19.9,13v18.4c0,0.9,0.7,1.6,1.6,1.6c0.9,0,1.6-0.7,1.6-1.6v-18.4  C57.8,347.3,57.8,347.2,57.8,347"/>
</svg>