<?xml version="1.0" encoding="utf-8"?>
<!-- Generator: Adobe Illustrator 16.0.0, SVG Export Plug-In . SVG Version: 6.00 Build 0)  -->
<!DOCTYPE svg PUBLIC "-//W3C//DTD SVG 1.1//EN" "http://www.w3.org/Graphics/SVG/1.1/DTD/svg11.dtd">
<svg version="1.1" id="Layer_1" xmlns="http://www.w3.org/2000/svg" xmlns:xlink="http://www.w3.org/1999/xlink" x="0px" y="0px"
  width="1525px" height="185px" viewBox="0 0 1525 185" enable-background="new 0 0 1525 185">
<style>
.white {
fill: #FFFFFF;
}
</style>
<g>
<defs>
<rect id="SVGID_1_" x="47.999" y="51.379" width="116.424" height="130.871"/>
</defs>
<clipPath id="SVGID_2_">
<use xlink:href="#SVGID_1_"  overflow="visible"/>
</clipPath>
<path class='white' clip-path="url(#SVGID_2_)" fill="#1E3046" d="M135.516,137.292l20.876,2.409c-3.211,10.432-10.437,20.068-20.876,28.9
 	c-10.437,9.638-23.283,13.648-38.537,13.648c-8.835,0-17.666-1.608-24.893-6.42c-8.027-4.014-13.65-10.438-17.665-18.468
 	c-4.012-8.031-6.422-17.661-6.422-28.104c0-13.651,3.21-26.496,9.633-39.343c6.427-12.843,14.454-22.476,24.893-28.901
 	c9.634-6.424,20.877-9.635,32.117-9.635c15.256,0,26.497,4.816,36.132,14.447c8.831,8.836,12.846,21.679,12.846,37.74
 	c0,6.426-0.802,12.041-1.606,18.466H69.679c0,2.409,0,4.82,0,7.227c0,11.236,2.407,20.072,8.027,26.495
 	c5.623,6.426,12.045,9.638,19.273,9.638c8.026,0,14.45-2.408,21.676-7.226C125.881,153.346,131.502,146.116,135.516,137.292z
 	 M73.692,105.969h69.854c0-2.402,0-4.007,0-4.808c0-10.441-2.407-18.472-8.03-24.892c-4.815-5.62-12.042-8.03-20.072-8.03
 	c-9.634,0-17.665,3.212-24.889,9.637C82.525,83.492,76.905,93.125,73.692,105.969z"/>
</g>
<g>
<defs>
<rect id="SVGID_3_" x="174.056" y="4.007" width="154.96" height="178.243"/>
</defs>
<clipPath id="SVGID_4_">
<use xlink:href="#SVGID_3_"  overflow="visible"/>
</clipPath>
<path class='white' clip-path="url(#SVGID_4_)" fill="#1E3046" d="M296.902,118.816l23.283,2.422c-7.226,20.069-17.665,35.319-32.115,45.762
 	c-13.648,10.438-28.906,15.25-45.766,15.25c-20.875,0-37.737-6.42-49.781-19.267c-12.042-12.047-18.467-30.509-18.467-54.6
 	c0-31.311,8.833-57.004,28.101-77.078c16.059-18.469,36.936-27.299,61.827-27.299c18.466,0,32.919,4.816,44.16,14.45
 	c11.239,10.438,17.664,23.285,20.074,40.147l-21.68,1.608c-2.409-12.047-7.228-21.683-14.454-28.104
 	c-7.223-5.62-16.056-8.832-27.296-8.832c-20.876,0-38.541,9.635-51.387,28.104c-11.244,16.06-16.862,35.332-16.862,57.809
 	c0,17.664,4.016,30.513,12.845,40.143c8.831,9.632,20.074,13.652,34.527,13.652c11.238,0,22.479-3.214,32.116-11.243
 	C285.66,143.714,292.888,133.271,296.902,118.816z"/>
</g>
<g>
<defs>
<rect id="SVGID_11_" x="0.629" y="4.007" width="1523.923" height="178.243"/>
</defs>
<clipPath id="SVGID_12_">
<use xlink:href="#SVGID_11_"  overflow="visible"/>
</clipPath>
<path class='white' clip-path="url(#SVGID_12_)" fill="#1E3046" d="M891.059,179.848L879.819,7.22h23.28l4.02,85.107
 	c0.798,4.014,0.798,15.253,1.601,33.719c0,4.82,0,8.036,0,10.441c0,0.805,0,4.82,0,11.237
 	c9.639-19.271,16.867-32.922,20.875-40.942L982.589,7.22h23.286l5.621,101.164c0.795,11.246,0.795,24.888,1.604,41.749
 	c1.604-4.017,4.014-10.432,7.229-18.463c6.416-12.04,10.433-21.678,12.844-27.299l48.976-97.151h24.09l-88.328,172.628H993.03
 	l-4.823-104.383c-0.798-8.834-1.607-20.075-2.402-33.723c-4.824,11.243-8.834,19.273-12.05,25.698l-59.413,112.408H891.059z"/>
</g>
</svg>