<svg xmlns="http://www.w3.org/2000/svg" xmlns:xlink="http://www.w3.org/1999/xlink" version="1.1" id="layer" x="0px" y="0px" style="enable-background:new 0 300 100 100;" xml:space="preserve" viewBox="26.99 284.1 150.01 84.3">
<style type="text/css">
    .st0{fill:#FFFFFF;}
    .st1{fill:#7BA818;}
    .st2{fill:#BFCC00;}
</style>
<path class="st1" d="M71.6,308.8c0,2.9,2.4,5.3,5.3,5.3c2.9,0,5.3-2.4,5.3-5.3c0-2.9-2.4-5.3-5.3-5.3  C74,303.6,71.6,305.9,71.6,308.8 M102.4,311.5c0,0,0.9,22.2-10.1,37.5c-11.1,15.3-30,17.8-30,17.8s-0.9-22.2,10.1-37.5  C83.5,314,102.4,311.5,102.4,311.5"/>
<path class="st2" d="M58.2,324.1c0,0-8.3-10.1-8.5-21.1c-0.2-11,7.8-18.9,7.8-18.9s8.3,10.1,8.5,21.1  C66.2,316.2,58.2,324.1,58.2,324.1 M57.8,347v-0.2c0,0,0,0,0,0c0-4.3-0.8-17.7-7.8-27.4C41.5,307.7,27,305.8,27,305.8  s-0.7,17.1,7.8,28.8c6.1,8.3,15.1,11.7,19.9,13v18.4c0,0.9,0.7,1.6,1.6,1.6c0.9,0,1.6-0.7,1.6-1.6v-18.4  C57.8,347.3,57.8,347.2,57.8,347"/>
</svg>
